<svg width="398" height="27" fill="none" xmlns="http://www.w3.org/2000/svg"><path d="M390.005 23.293l-2.682-2.682a.499.499 0 00-.765.638l.057.069 3.57 3.566.07.05.056.027.068.023.02.005a.498.498 0 00.107.011l-.074-.005.031.003h.085l.086-.015.063-.02.076-.04.07-.055 3.552-3.55a.5.5 0 00-.638-.765l-.07.058-2.681 2.682V19c0-3.522-1.976-5.885-4.793-5.996l-.208-.004a.501.501 0 100 1c2.273 0 3.904 1.807 3.995 4.738l.005.262v4.293l-2.682-2.682 2.682 2.682z" fill="#FFD65B"/><circle cx="200" cy="13" r="7" stroke="#FFD65B" stroke-width="2"/><path stroke="#FFD65B" d="M206.995 13.448h180M12 13.5h180"/><path d="M7.995 3.707l2.682 2.682a.5.5 0 00.765-.638l-.057-.069-3.57-3.566-.07-.05-.056-.027-.068-.023-.02-.005A.498.498 0 007.494 2l.074.005-.031-.003h-.085l-.086.015-.063.02-.076.04-.07.055-3.552 3.55a.5.5 0 00.638.765l.07-.058 2.681-2.682V8c0 3.522 1.976 5.885 4.793 5.996l.208.004a.5.5 0 000-1C9.722 13 8.091 11.193 8 8.262L7.995 8V3.707l2.682 2.682-2.682-2.682z" fill="#FFD65B"/></svg>