<svg width="15" height="16" fill="none" xmlns="http://www.w3.org/2000/svg"><path d="M7.223 8c1.662 0 3.01-1.492 3.01-3.333 0-1.841-1.348-3.334-3.01-3.334-1.662 0-3.01 1.493-3.01 3.334C4.213 6.507 5.561 8 7.223 8z" stroke="#FFD65B" stroke-width="1.333"/><path d="M10.232 9.333h.212c.44 0 .865.178 1.195.501.33.323.542.768.597 1.251l.235 2.083c.021.188.006.378-.044.559a1.38 1.38 0 01-.248.489 1.22 1.22 0 01-.408.333 1.106 1.106 0 01-.495.118H3.17a1.1 1.1 0 01-.495-.118 1.22 1.22 0 01-.408-.333 1.378 1.378 0 01-.248-.49 1.471 1.471 0 01-.044-.558l.235-2.083c.054-.484.266-.929.597-1.251.33-.323.755-.5 1.195-.5h.211" stroke="#FFD65B" stroke-width="1.333" stroke-linecap="round" stroke-linejoin="round"/></svg>