<svg width="12" height="12" fill="none" xmlns="http://www.w3.org/2000/svg"><g clip-path="url(#clip0_25_923)" fill="#FFD65B"><path d="M7.853 4.875c0-.1.035-.195.098-.265a.32.32 0 01.238-.11h.673c.09 0 .175.04.238.11s.098.166.098.265v.75c0 .1-.035.195-.098.265a.32.32 0 01-.238.11H8.19a.32.32 0 01-.238-.11.398.398 0 01-.098-.265v-.75zm-2.019 0c0-.1.036-.195.099-.265a.32.32 0 01.238-.11h.673c.089 0 .174.04.237.11s.099.166.099.265v.75c0 .1-.036.195-.099.265a.32.32 0 01-.237.11H6.17a.32.32 0 01-.238-.11.398.398 0 01-.099-.265v-.75zM2.47 7.125c0-.1.035-.195.099-.265a.32.32 0 01.237-.11h.673c.09 0 .175.04.238.11s.099.166.099.265v.75c0 .1-.036.195-.099.265a.32.32 0 01-.238.11h-.673a.32.32 0 01-.237-.11.398.398 0 01-.099-.265v-.75zm2.019 0c0-.1.035-.195.098-.265a.32.32 0 01.238-.11h.673c.089 0 .175.04.238.11s.098.166.098.265v.75c0 .1-.035.195-.098.265a.32.32 0 01-.238.11h-.673a.32.32 0 01-.238-.11.398.398 0 01-.098-.265v-.75z"/><path d="M2.806 0c.09 0 .175.04.238.11s.099.166.099.265V.75h5.383V.375c0-.1.035-.195.098-.265A.32.32 0 018.862 0c.09 0 .175.04.238.11s.098.166.098.265V.75h.673c.357 0 .7.158.952.44.252.28.394.662.394 1.06v8.25c0 .398-.142.78-.394 1.06a1.28 1.28 0 01-.952.44H1.797c-.357 0-.7-.158-.951-.44A1.592 1.592 0 01.45 10.5V2.25c0-.398.142-.78.395-1.06a1.28 1.28 0 01.951-.44h.673V.375c0-.1.035-.195.099-.265A.32.32 0 012.806 0zM1.124 3v7.5c0 .199.071.39.197.53a.64.64 0 00.476.22h8.074a.64.64 0 00.476-.22.796.796 0 00.197-.53V3h-9.42z"/></g><defs><clipPath id="clip0_25_923"><path fill="#fff" transform="translate(.451)" d="M0 0h10.766v12H0z"/></clipPath></defs></svg>