<svg width="20" height="27" fill="none" xmlns="http://www.w3.org/2000/svg"><path d="M10 .4C7.349.405 4.807 1.5 2.932 3.447 1.058 5.393.003 8.033 0 10.786a10.542 10.542 0 002.015 6.23s.272.374.317.428L10 26.835l7.672-9.396c.04-.05.313-.422.313-.422l.001-.003A10.538 10.538 0 0020 10.786c-.003-2.753-1.058-5.393-2.932-7.34C15.193 1.5 12.65.404 10 .401zm0 14.162a3.54 3.54 0 01-2.02-.636 3.749 3.749 0 01-1.34-1.695 3.911 3.911 0 01-.206-2.182c.14-.732.486-1.405.995-1.933A3.597 3.597 0 019.29 7.082a3.511 3.511 0 012.1.215 3.67 3.67 0 011.633 1.39c.4.622.612 1.352.612 2.099a3.856 3.856 0 01-1.066 2.669A3.574 3.574 0 0110 14.562z" fill="#FFD65B"/></svg>