<svg width="20" height="16" fill="none" xmlns="http://www.w3.org/2000/svg"><path d="M19 .194a1.205 1.205 0 00-.256 0h-17.5a1.25 1.25 0 00-.332.052l9.032 9.338L19 .194z" fill="#FFD65B"/><path d="M19.925 1.091l-9.1 9.414a1.227 1.227 0 01-.881.377c-.33 0-.647-.135-.882-.377L.044 1.163A1.346 1.346 0 000 1.487v12.985c0 .344.132.674.366.918.235.243.552.38.884.38h17.5c.331 0 .65-.137.884-.38.234-.244.366-.574.366-.918V1.487a1.344 1.344 0 00-.075-.396zM2.106 14.471h-.868v-.928l4.543-4.68.881.915-4.556 4.694zm16.632 0h-.875l-4.557-4.693.882-.916 4.543 4.681.006.929z" fill="#FFD65B"/></svg>