<svg width="20" height="21" fill="none" xmlns="http://www.w3.org/2000/svg"><path d="M10 .073c-5.523 0-10 4.65-10 10.385 0 5.736 4.477 10.386 10 10.386s10-4.65 10-10.386C20 4.722 15.523.073 10 .073zM6.406 4.198c.206-.013.393.115.534.342l1.367 2.693c.144.32.062.66-.153.889l-.626.65a.326.326 0 00-.065.185c.24.966.969 1.856 1.612 2.468.642.613 1.333 1.442 2.23 1.638.11.033.247.044.326-.033l.727-.769c.252-.198.615-.293.883-.132h.012l2.467 1.513c.362.235.4.691.14.968l-1.699 1.751c-.25.267-.584.357-.908.357-1.432-.044-2.786-.774-3.898-1.525-1.824-1.378-3.498-3.088-4.55-5.154-.402-.867-.876-1.972-.83-2.939.004-.364.098-.72.345-.955l1.7-1.764a.653.653 0 01.386-.183z" fill="#FFD65B"/></svg>