<svg width="36" height="36" fill="none" xmlns="http://www.w3.org/2000/svg"><path d="M26.79 4.535a4.83 4.83 0 00-3.411 1.406L12.937 16.384l-6.152 2.354-.597.247-.106.633L4.5 30.198l-.211 1.511 1.513-.209 10.582-1.581.633-.106.246-.598 2.215-5.836.563-.527 10.125-10.125c1.814-1.815 1.85-4.73.14-6.61l-.14-.176a4.75 4.75 0 00-3.375-1.406h-.001zm0 2.215c.632 0 1.265.282 1.792.81 1.055 1.053 1.055 2.53 0 3.585l-5.66 5.66-3.587-3.586 5.661-5.66c.527-.527 1.16-.809 1.793-.809zm-9.071 8.087l3.586 3.585-2.04 2.04-3.586-3.587 2.04-2.038zm-3.762 3.55h.035l3.622 3.62-2.216 5.802-6.573.948 3.022-3.022c.062.004.115.035.176.035.993 0 1.83-.8 1.83-1.793a1.85 1.85 0 00-1.83-1.828c-.992 0-1.792.835-1.792 1.828 0 .061.03.114.035.176l-3.024 3.023.95-6.574 5.765-2.215z" fill="#FFD65B"/></svg>