<svg width="15" height="15" fill="none" xmlns="http://www.w3.org/2000/svg"><path d="M6.596 3.9L4.482 1.46c-.244-.282-.69-.28-.974.003L1.77 3.205c-.517.518-.665 1.287-.366 1.904a18.254 18.254 0 008.476 8.488c.616.3 1.385.151 1.902-.367l1.755-1.758c.285-.284.285-.734.002-.978l-2.45-2.103c-.257-.22-.655-.191-.912.066l-.852.854a.289.289 0 01-.346.055 9.098 9.098 0 01-3.35-3.354.29.29 0 01.055-.346l.85-.851c.258-.259.286-.659.063-.916V3.9z" stroke="#FFD65B" stroke-width="2" stroke-linecap="round" stroke-linejoin="round"/></svg>