<svg width="18" height="18" fill="none" xmlns="http://www.w3.org/2000/svg"><g clip-path="url(#clip0_80_7)"><path d="M3.955 7.875a3.938 3.938 0 11-3.937 3.938L0 11.25a7.875 7.875 0 017.875-7.875v2.25a5.591 5.591 0 00-3.978 1.647c-.203.202-.39.42-.56.65.202-.031.408-.048.617-.048l.001.001zm10.125 0a3.938 3.938 0 11-3.937 3.938l-.018-.563A7.875 7.875 0 0118 3.375v2.25a5.591 5.591 0 00-3.978 1.647c-.203.202-.39.42-.56.65a3.99 3.99 0 01.619-.048v.001z" fill="#FFD65B"/></g><defs><clipPath id="clip0_80_7"><path fill="#fff" d="M0 0h18v18H0z"/></clipPath></defs></svg>