<svg width="30" height="23" fill="none" xmlns="http://www.w3.org/2000/svg"><path d="M28.5.01a1.875 1.875 0 00-.384 0H1.866a1.875 1.875 0 00-.497.075l13.547 13.49L28.5.01z" fill="#fff" fill-opacity=".6"/><path d="M29.887 1.313l-13.65 13.594a1.875 1.875 0 01-2.643 0L.066 1.417c-.042.152-.064.31-.066.468v18.75a1.875 1.875 0 001.875 1.875h26.25A1.875 1.875 0 0030 20.635V1.885a1.875 1.875 0 00-.113-.572zM3.16 20.635H1.856v-1.34l6.816-6.76 1.322 1.322-6.835 6.778zm24.947 0h-1.312l-6.835-6.778 1.322-1.322 6.816 6.76.01 1.34z" fill="#fff" fill-opacity=".6"/></svg>