<svg width="30" height="30" fill="none" xmlns="http://www.w3.org/2000/svg"><path d="M29.583 24.946l-4.23 4.196c-.624.64-1.451.857-2.257.858-3.565-.107-6.934-1.858-9.7-3.655-4.54-3.304-8.707-7.4-11.321-12.35C1.072 11.92-.105 9.273.007 6.956c.01-.871.245-1.727.86-2.288L5.095.439c.878-.747 1.727-.489 2.29.382l3.402 6.452c.358.765.153 1.584-.381 2.13L8.848 10.96a.765.765 0 00-.159.445c.598 2.313 2.408 4.445 4.007 5.912 1.6 1.468 3.319 3.455 5.55 3.926.276.077.613.104.81-.08l1.813-1.843c.625-.474 1.528-.705 2.195-.318h.032l6.137 3.624c.901.564.995 1.656.35 2.32z" fill="#fff" fill-opacity=".6"/></svg>