<svg width="112" height="112" fill="none" xmlns="http://www.w3.org/2000/svg"><path d="M56 112c30.928 0 56-25.072 56-56S86.928 0 56 0 0 25.072 0 56s25.072 56 56 56z" fill="#FFCD37"/><path d="M112 56c0-.524-.026-1.04-.04-1.558L82.72 25.206v-.008h-1.336v.177H30.616v-.177H29.28v4.807l1.616 1.618v35.023h-.28v-.127H29.28v2.112l13.126 13.126-3.574 1.737a1.653 1.653 0 00-.664-.136c-.945 0-1.72.776-1.72 1.719 0 .41.144.785.383 1.081 0 0 .008.008.008.016l.232.232c.01 0 .017.008.017.008l25.222 25.221C90.266 108.501 112 84.794 112 56zM30.616 29.926v-.095h.28v.078l-.28.017zm0 38.626v-.057h.934l-.934.057z" fill="#FFC415"/><path d="M38.16 83.82l.812 1.668 17.155-8.335-.81-1.673-17.156 8.34z" fill="#fff"/><path d="M73.841 83.82l-.813 1.668-17.155-8.335.814-1.673 17.154 8.34z" fill="#fff"/><path d="M56.93 68.494h-1.854v16.995h1.854V68.494z" fill="#fff"/><path d="M57.72 85.08a1.718 1.718 0 11-3.438 0 1.719 1.719 0 013.438 0zm-17.832 0a1.72 1.72 0 01-3.44 0 1.72 1.72 0 013.44 0zm35.666 0c0 .952-.773 1.72-1.722 1.72a1.718 1.718 0 01-1.716-1.72 1.718 1.718 0 013.438 0z" fill="#283A4D"/><path d="M81.105 29.837H30.9v36.812h50.204V29.837z" fill="#fff"/><path d="M81.676 25.374H30.33v4.459h51.346v-4.46z" fill="#5D6D7E"/><path d="M30.62 25.2h-1.338v4.809h1.338V25.2zm52.096 0h-1.337v4.809h1.337V25.2z" fill="#283A4D"/><path d="M81.676 66.646H30.33v1.848h51.346v-1.848z" fill="#5D6D7E"/><path d="M30.62 66.517h-1.338v2.116h1.338v-2.116zm52.096 0h-1.337v2.116h1.337v-2.116z" fill="#283A4D"/><path d="M43.469 43.748l-8.09 8.091h16.18l-8.09-8.09z" fill="#C1D354"/><path d="M61.342 40.705L50.207 51.839H72.48L61.342 40.705z" fill="#FF8E31"/><path d="M68.533 43.748l-8.088 8.091h16.181l-8.093-8.09z" fill="#0575A5"/><path d="M51.559 45.944l-5.895 5.895h11.793l-5.898-5.895z" fill="#34495E"/><path d="M44.985 34.608h-6.188v1.138h6.188v-1.138z" fill="#C1D354"/><path d="M54.393 34.608h-6.188v1.138h6.188v-1.138z" fill="#34495E"/><path d="M63.8 34.608h-6.187v1.138H63.8v-1.138z" fill="#FF8E31"/><path d="M73.209 34.608H67.02v1.138h6.188v-1.138z" fill="#0575A5"/><path d="M44.301 55.53h-8.97v4.49h8.97v-4.49z" fill="#5D6D7E"/><path d="M58.705 55.53H45.55v.775h13.155v-.775zm17.97 0H61.718v.775h14.957v-.775zm-24.548 1.859H45.55v.775h6.578v-.775zm6.598 0h-3.649v.775h3.649v-.775zm4.819 0h-3.652v.775h3.652v-.775zm13.135 0H64.714v.775h11.965v-.775zm-29.318 1.853h-1.81v.776h1.81v-.776zm29.315 0H50.988v.776h25.688v-.776zm-.001 1.86H49.622v.773h27.053v-.773zm-28.573 0H35.33v.773h12.772v-.773z" fill="#B8D1E6"/></svg>