<svg width="112" height="112" fill="none" xmlns="http://www.w3.org/2000/svg"><path d="M56 112c30.928 0 56-25.072 56-56S86.928 0 56 0 0 25.072 0 56s25.072 56 56 56z" fill="#FFCD37"/><path d="M109.992 70.856L86.284 47.15h-2.017L56 30.997l-10.496 5.999L27.732 47.15h-2.016v3.228l5.961 5.962v18.2h-3.945v3.237h-2.016v3.228l30.978 30.978c25.477-.311 46.846-17.625 53.298-41.126z" fill="#FFBF00"/><path d="M84.269 74.542H27.737v3.232h56.532v-3.232z" fill="#E1EFFA"/><path d="M86.286 77.773h-60.57v3.23h60.57v-3.23zm0-30.626h-60.57v3.226h60.57v-3.226zm-50.171 3.231h-4.441v24.17h4.441v-24.17z" fill="#fff"/><path d="M37.124 50.378h-6.46v3.245h6.46v-3.245z" fill="#E1EFFA"/><path d="M50.851 50.378h-4.444v24.17h4.444v-24.17z" fill="#fff"/><path d="M51.863 50.378h-6.458v3.245h6.458v-3.245z" fill="#E1EFFA"/><path d="M65.592 50.378h-4.44v24.17h4.44v-24.17z" fill="#fff"/><path d="M66.598 50.378h-6.46v3.245h6.46v-3.245z" fill="#E1EFFA"/><path d="M80.327 50.378h-4.441v24.17h4.441v-24.17z" fill="#fff"/><path d="M81.337 50.378h-6.46v3.245h6.46v-3.245zM56 30.997L27.735 47.149h56.53L56 30.997z" fill="#E1EFFA"/><path d="M39.9 43.917l16.1-9.2 16.1 9.2H39.9z" fill="#B8D1E6"/></svg>