<svg width="112" height="112" fill="none" xmlns="http://www.w3.org/2000/svg"><path d="M112 56c0 30.929-25.071 56-56 56S0 86.929 0 56C0 25.07 25.071 0 56 0s56 25.07 56 56z" fill="#FFCD37"/><path d="M111.9 59.24L80.487 27.824l-2.12.536-1.982.497-.002-.001-9.64 2.423a2.102 2.102 0 00-1.356 3.008c.014.028.032.051.048.078.07.124.149.236.24.34l.004.006.017.016c.068.076.14.15.22.216.017.017.032.034.052.047l4.413 4.412c-5.405 6.062-12.967 11.681-21.733 15.981-6.263 3.072-12.639 5.25-18.935 6.472a2.106 2.106 0 00-1.192 3.457l.207.207c.017.015.033.023.048.04l7.543 7.55c-4.606.074-8.27 1.512-8.27 3.29v2.064c0 .064.015.121.023.176-.008.057-.023.112-.023.167v2.073c0 .312.111.609.32.888l.528.536c.008.008.024.015.031.023l29.608 29.609C87.21 110.656 110.268 87.82 111.9 59.24z" fill="#FFBF00"/><path d="M82.052 78.81c-1.58-.744-3.995-1.22-6.699-1.22-2.712 0-5.126.476-6.706 1.22h-1.92v2.069c0 1.816 3.855 3.295 8.625 3.295 4.758 0 8.62-1.48 8.62-3.296V78.81h-1.92z" fill="#5D6D7E"/><path d="M66.726 78.81v1.617c0 1.816 3.856 3.294 8.626 3.294 4.758 0 8.62-1.478 8.62-3.294V78.81H66.725z" fill="#B8D1E6"/><path d="M66.726 78.81v1.617c0 1.816 3.856 3.294 8.626 3.294 4.758 0 8.62-1.478 8.62-3.294V78.81H66.725z" fill="#B8D1E6"/><path d="M83.971 78.81c0 1.816-3.86 3.293-8.619 3.293-4.77 0-8.626-1.477-8.626-3.294 0-1.819 3.856-3.289 8.626-3.289 4.759 0 8.62 1.47 8.62 3.29z" fill="#B8D1E6"/><path d="M75.353 81.76c-4.953 0-8.28-1.525-8.28-2.95 0-1.42 3.327-2.945 8.28-2.945 4.949 0 8.273 1.525 8.273 2.944 0 1.396-3.398 2.95-8.273 2.95z" fill="#F2F9FF"/><path d="M74.903 80.646c-1.438-.043-2.512-.262-3.253-.555l.923-.483c.513.218 1.325.419 2.33.478v-1.033c-1.438-.139-2.946-.337-2.946-1.03 0-.54 1.143-.972 2.945-1.032v-.49h1.114v.494c1.132.05 2.082.22 2.807.487l-.92.462c-.531-.202-1.2-.325-1.887-.38v.924c1.453.143 3.031.35 3.031 1.064 0 .544-.937 1.022-3.03 1.092v.479h-1.115v-.478zm0-2.271v-.836c-.782.038-1.27.203-1.27.438 0 .207.53.313 1.27.398zm1.114.79v.925c.966-.055 1.355-.271 1.355-.479 0-.24-.584-.356-1.355-.447z" fill="#B8D1E6"/><path d="M67.257 79.389v2.176c.163.17.365.334.597.49v-2.04a2.286 2.286 0 01-.597-.626zm15.431.723v2.041c.228-.14.431-.287.601-.44V79.59a3.132 3.132 0 01-.6.522zm-14.367.218v2.002c.186.102.385.199.602.29v-1.986a6.845 6.845 0 01-.602-.306zm1.068.502v1.974c.192.069.391.136.599.199v-1.968a10.88 10.88 0 01-.599-.205z" fill="#F2F9FF"/><path d="M82.052 76.396c-1.58-.743-3.995-1.22-6.699-1.22-2.712 0-5.126.477-6.706 1.22h-1.92v2.068c0 1.817 3.855 3.294 8.625 3.294 4.758 0 8.62-1.477 8.62-3.294v-2.068h-1.92z" fill="#5D6D7E"/><path d="M66.726 76.396v1.616c0 1.816 3.856 3.293 8.626 3.293 4.758 0 8.62-1.477 8.62-3.293v-1.616H66.725z" fill="#B8D1E6"/><path d="M66.726 76.396v1.616c0 1.816 3.856 3.293 8.626 3.293 4.758 0 8.62-1.477 8.62-3.293v-1.616H66.725z" fill="#B8D1E6"/><path d="M83.971 76.396c0 1.817-3.86 3.294-8.619 3.294-4.77 0-8.626-1.477-8.626-3.294 0-1.82 3.856-3.29 8.626-3.29 4.759 0 8.62 1.47 8.62 3.29z" fill="#B8D1E6"/><path d="M75.353 79.345c-4.953 0-8.28-1.526-8.28-2.948 0-1.424 3.327-2.945 8.28-2.945 4.949 0 8.273 1.522 8.273 2.945 0 1.394-3.398 2.948-8.273 2.948z" fill="#F2F9FF"/><path d="M74.903 78.23c-1.438-.043-2.512-.261-3.253-.553l.923-.485c.513.22 1.325.42 2.33.48v-1.035c-1.438-.137-2.946-.336-2.946-1.028 0-.542 1.143-.976 2.945-1.033v-.491h1.114v.496c1.132.048 2.082.218 2.807.486l-.92.462c-.531-.201-1.2-.325-1.887-.378v.921c1.453.145 3.031.352 3.031 1.065 0 .544-.937 1.023-3.03 1.092v.479h-1.115v-.478zm0-2.268v-.836c-.782.037-1.27.202-1.27.438 0 .207.53.313 1.27.398zm1.114.79v.925c.966-.056 1.355-.272 1.355-.48 0-.238-.584-.356-1.355-.446z" fill="#B8D1E6"/><path d="M67.257 76.975v2.174a3.6 3.6 0 00.597.49v-2.037c-.266-.203-.469-.413-.597-.627zm15.431.722v2.042c.228-.14.431-.288.601-.442v-2.122a2.997 2.997 0 01-.6.522zm-14.367.217v2.005c.186.1.385.197.602.288v-1.985a6.629 6.629 0 01-.602-.308zm1.068.502v1.974c.192.07.391.138.599.2v-1.967a12.279 12.279 0 01-.599-.207z" fill="#F2F9FF"/><path d="M82.052 73.98c-1.58-.744-3.995-1.218-6.699-1.218-2.712 0-5.126.474-6.706 1.219h-1.92v2.07c0 1.816 3.855 3.293 8.625 3.293 4.758 0 8.62-1.477 8.62-3.294v-2.07h-1.92z" fill="#5D6D7E"/><path d="M66.726 73.98v1.617c0 1.817 3.856 3.294 8.626 3.294 4.758 0 8.62-1.477 8.62-3.294V73.98H66.725z" fill="#B8D1E6"/><path d="M66.726 73.98v1.617c0 1.817 3.856 3.294 8.626 3.294 4.758 0 8.62-1.477 8.62-3.294V73.98H66.725z" fill="#B8D1E6"/><path d="M83.971 73.98c0 1.818-3.86 3.295-8.619 3.295-4.77 0-8.626-1.477-8.626-3.295 0-1.82 3.856-3.289 8.626-3.289 4.759 0 8.62 1.469 8.62 3.29z" fill="#B8D1E6"/><path d="M75.353 76.93c-4.953 0-8.28-1.525-8.28-2.95 0-1.42 3.327-2.943 8.28-2.943 4.949 0 8.273 1.523 8.273 2.944 0 1.395-3.398 2.95-8.273 2.95z" fill="#F2F9FF"/><path d="M74.903 75.816c-1.438-.043-2.512-.26-3.253-.554l.923-.484c.513.218 1.325.42 2.33.478v-1.034c-1.438-.136-2.946-.335-2.946-1.026 0-.543 1.143-.975 2.945-1.036v-.488h1.114v.497c1.132.047 2.082.218 2.807.485l-.92.462c-.531-.203-1.2-.326-1.887-.378v.922c1.453.142 3.031.35 3.031 1.063 0 .544-.937 1.025-3.03 1.093v.48h-1.115v-.48zm0-2.268v-.84c-.782.04-1.27.205-1.27.439 0 .209.53.315 1.27.4zm1.114.788v.926c.966-.054 1.355-.272 1.355-.48 0-.239-.584-.357-1.355-.446z" fill="#B8D1E6"/><path d="M67.257 74.562v2.173c.163.17.365.335.597.491V75.19c-.266-.205-.469-.416-.597-.627zm15.431.722v2.042c.228-.141.431-.29.601-.442v-2.122a3.047 3.047 0 01-.6.522zm-14.367.216v2.005c.186.1.385.195.602.287v-1.986c-.219-.098-.42-.2-.602-.306zm1.068.501v1.975c.192.07.391.136.599.2v-1.968a10.538 10.538 0 01-.599-.207z" fill="#F2F9FF"/><path d="M82.052 71.566c-1.58-.743-3.995-1.218-6.699-1.218-2.712 0-5.126.475-6.706 1.218h-1.92v2.07c0 1.817 3.855 3.295 8.625 3.295 4.758 0 8.62-1.478 8.62-3.294v-2.071h-1.92z" fill="#5D6D7E"/><path d="M66.726 71.566v1.618c0 1.816 3.856 3.294 8.626 3.294 4.758 0 8.62-1.478 8.62-3.294v-1.618H66.725z" fill="#B8D1E6"/><path d="M66.726 71.566v1.618c0 1.816 3.856 3.294 8.626 3.294 4.758 0 8.62-1.478 8.62-3.294v-1.618H66.725z" fill="#B8D1E6"/><path d="M83.971 71.566c0 1.817-3.86 3.295-8.619 3.295-4.77 0-8.626-1.478-8.626-3.295 0-1.82 3.856-3.287 8.626-3.287 4.759 0 8.62 1.468 8.62 3.287z" fill="#B8D1E6"/><path d="M75.353 74.515c-4.953 0-8.28-1.524-8.28-2.95 0-1.419 3.327-2.943 8.28-2.943 4.949 0 8.273 1.524 8.273 2.943 0 1.396-3.398 2.95-8.273 2.95z" fill="#F2F9FF"/><path d="M74.903 73.401c-1.438-.042-2.512-.26-3.253-.554l.923-.484c.513.219 1.325.42 2.33.48v-1.035c-1.438-.138-2.946-.336-2.946-1.027 0-.543 1.143-.974 2.945-1.035v-.488h1.114v.494c1.132.048 2.082.22 2.807.486l-.92.463c-.531-.203-1.2-.325-1.887-.38v.922c1.453.144 3.031.352 3.031 1.066 0 .544-.937 1.021-3.03 1.092v.478h-1.115v-.478zm0-2.269v-.837c-.782.038-1.27.203-1.27.438 0 .208.53.314 1.27.4zm1.114.789v.926c.966-.054 1.355-.272 1.355-.478 0-.24-.584-.358-1.355-.448z" fill="#B8D1E6"/><path d="M67.257 72.145v2.176c.163.17.365.335.597.49v-2.038c-.266-.202-.469-.413-.597-.628zm15.431.724v2.04c.228-.14.431-.287.601-.439v-2.122c-.151.175-.352.35-.6.521zm-14.367.218v2.004c.186.1.385.196.602.287v-1.985a6.984 6.984 0 01-.602-.306zm1.068.5v1.976c.192.068.391.135.599.198v-1.968a9.745 9.745 0 01-.599-.206z" fill="#F2F9FF"/><path d="M82.052 69.152c-1.58-.744-3.995-1.22-6.699-1.22-2.712 0-5.126.477-6.706 1.22h-1.92v2.068c0 1.818 3.855 3.294 8.625 3.294 4.758 0 8.62-1.476 8.62-3.294v-2.068h-1.92z" fill="#5D6D7E"/><path d="M66.726 69.152v1.616c0 1.818 3.856 3.294 8.626 3.294 4.758 0 8.62-1.476 8.62-3.294v-1.616H66.725z" fill="#B8D1E6"/><path d="M66.726 69.152v1.616c0 1.818 3.856 3.294 8.626 3.294 4.758 0 8.62-1.476 8.62-3.294v-1.616H66.725z" fill="#B8D1E6"/><path d="M83.971 69.152c0 1.816-3.86 3.294-8.619 3.294-4.77 0-8.626-1.478-8.626-3.294 0-1.819 3.856-3.29 8.626-3.29 4.759 0 8.62 1.471 8.62 3.29z" fill="#B8D1E6"/><path d="M75.353 72.1c-4.953 0-8.28-1.525-8.28-2.948 0-1.422 3.327-2.944 8.28-2.944 4.949 0 8.273 1.522 8.273 2.944 0 1.396-3.398 2.949-8.273 2.949z" fill="#F2F9FF"/><path d="M74.903 70.987c-1.438-.043-2.512-.261-3.253-.553l.923-.486c.513.22 1.325.422 2.33.48v-1.034c-1.438-.137-2.946-.335-2.946-1.028 0-.543 1.143-.974 2.945-1.033v-.49h1.114v.495c1.132.047 2.082.218 2.807.485l-.92.463c-.531-.201-1.2-.324-1.887-.379v.922c1.453.144 3.031.352 3.031 1.066 0 .542-.937 1.022-3.03 1.09v.48h-1.115v-.478zm0-2.27v-.835c-.782.036-1.27.203-1.27.438 0 .207.53.313 1.27.398zm1.114.79v.926c.966-.055 1.355-.271 1.355-.48 0-.239-.584-.355-1.355-.446z" fill="#B8D1E6"/><path d="M67.257 69.732v2.174c.163.172.365.334.597.49v-2.037c-.266-.204-.469-.414-.597-.627zm15.431.723v2.04a3.93 3.93 0 00.601-.442v-2.121a3.09 3.09 0 01-.6.523zm-14.367.216v2.004c.186.1.385.197.602.287V70.98a6.84 6.84 0 01-.602-.308zm1.068.502v1.974c.192.07.391.138.599.2v-1.968a13.707 13.707 0 01-.599-.206z" fill="#F2F9FF"/><path d="M82.052 66.737c-1.58-.745-3.995-1.218-6.699-1.218-2.712 0-5.126.473-6.706 1.218h-1.92v2.07c0 1.817 3.855 3.293 8.625 3.293 4.758 0 8.62-1.476 8.62-3.293v-2.07h-1.92z" fill="#5D6D7E"/><path d="M66.726 66.737v1.618c0 1.816 3.856 3.292 8.626 3.292 4.758 0 8.62-1.476 8.62-3.292v-1.618H66.725z" fill="#B8D1E6"/><path d="M66.726 66.737v1.618c0 1.816 3.856 3.292 8.626 3.292 4.758 0 8.62-1.476 8.62-3.292v-1.618H66.725z" fill="#B8D1E6"/><path d="M83.971 66.737c0 1.817-3.86 3.294-8.619 3.294-4.77 0-8.626-1.477-8.626-3.294 0-1.818 3.856-3.29 8.626-3.29 4.759 0 8.62 1.473 8.62 3.29z" fill="#B8D1E6"/><path d="M75.353 69.687c-4.953 0-8.28-1.526-8.28-2.95 0-1.421 3.327-2.944 8.28-2.944 4.949 0 8.273 1.523 8.273 2.944 0 1.395-3.398 2.95-8.273 2.95z" fill="#F2F9FF"/><path d="M74.903 68.571c-1.438-.041-2.512-.26-3.253-.552l.923-.484c.513.218 1.325.42 2.33.478v-1.034c-1.438-.137-2.946-.336-2.946-1.027 0-.542 1.143-.975 2.945-1.032v-.492h1.114v.497c1.132.047 2.082.218 2.807.485l-.92.462c-.531-.2-1.2-.325-1.887-.378v.922c1.453.143 3.031.352 3.031 1.063 0 .544-.937 1.024-3.03 1.092v.48h-1.115v-.48zm0-2.267v-.837c-.782.038-1.27.204-1.27.436 0 .21.53.315 1.27.401zm1.114.788v.927c.966-.055 1.355-.272 1.355-.48 0-.24-.584-.356-1.355-.447z" fill="#B8D1E6"/><path d="M67.257 67.318v2.172c.163.171.365.335.597.492v-2.039c-.266-.203-.469-.413-.597-.625zm15.431.722v2.042c.228-.142.431-.29.601-.442v-2.122a2.997 2.997 0 01-.6.522zm-14.367.217v2.005c.186.1.385.195.602.288v-1.987c-.219-.099-.42-.2-.602-.306zm1.068.5v1.976c.192.07.391.137.599.2v-1.968a12.149 12.149 0 01-.599-.208z" fill="#F2F9FF"/><path d="M82.052 64.322c-1.58-.744-3.995-1.219-6.699-1.219-2.712 0-5.126.475-6.706 1.22h-1.92v2.07c0 1.816 3.855 3.294 8.625 3.294 4.758 0 8.62-1.478 8.62-3.294v-2.07h-1.92z" fill="#5D6D7E"/><path d="M66.726 64.322v1.618c0 1.815 3.856 3.294 8.626 3.294 4.758 0 8.62-1.478 8.62-3.294v-1.618H66.725z" fill="#B8D1E6"/><path d="M66.726 64.322v1.618c0 1.815 3.856 3.294 8.626 3.294 4.758 0 8.62-1.478 8.62-3.294v-1.618H66.725z" fill="#B8D1E6"/><path d="M83.971 64.322c0 1.817-3.86 3.296-8.619 3.296-4.77 0-8.626-1.478-8.626-3.296 0-1.819 3.856-3.288 8.626-3.288 4.759 0 8.62 1.47 8.62 3.288z" fill="#B8D1E6"/><path d="M75.353 67.272c-4.953 0-8.28-1.524-8.28-2.95 0-1.421 3.327-2.944 8.28-2.944 4.949 0 8.273 1.523 8.273 2.944 0 1.395-3.398 2.95-8.273 2.95z" fill="#F2F9FF"/><path d="M74.903 66.158c-1.438-.043-2.512-.261-3.253-.554l.923-.484c.513.218 1.325.42 2.33.48v-1.035c-1.438-.136-2.946-.335-2.946-1.028 0-.543 1.143-.974 2.945-1.034v-.489h1.114v.495c1.132.05 2.082.22 2.807.485l-.92.463c-.531-.203-1.2-.324-1.887-.378v.922c1.453.143 3.031.35 3.031 1.064 0 .544-.937 1.023-3.03 1.093v.478h-1.115v-.477zm0-2.27v-.836c-.782.038-1.27.203-1.27.438 0 .207.53.313 1.27.399zm1.114.79v.925c.966-.054 1.355-.272 1.355-.478 0-.239-.584-.358-1.355-.448z" fill="#B8D1E6"/><path d="M67.257 64.902v2.175c.163.17.365.335.597.49V65.53c-.266-.203-.469-.414-.597-.628zm15.431.723v2.04c.228-.14.431-.287.601-.439v-2.121a3.077 3.077 0 01-.6.52zm-14.367.218v2.003c.186.102.385.197.602.29v-1.987c-.219-.099-.42-.2-.602-.306zm1.068.501v1.975a15 15 0 00.599.2v-1.97a9.49 9.49 0 01-.599-.205z" fill="#F2F9FF"/><path d="M82.052 61.909c-1.58-.743-3.995-1.22-6.699-1.22-2.712 0-5.126.477-6.706 1.22h-1.92v2.069c0 1.818 3.855 3.294 8.625 3.294 4.758 0 8.62-1.476 8.62-3.294v-2.07h-1.92z" fill="#5D6D7E"/><path d="M66.726 61.909v1.617c0 1.817 3.856 3.293 8.626 3.293 4.758 0 8.62-1.476 8.62-3.294V61.91H66.725z" fill="#B8D1E6"/><path d="M66.726 61.909v1.617c0 1.817 3.856 3.293 8.626 3.293 4.758 0 8.62-1.476 8.62-3.294V61.91H66.725z" fill="#B8D1E6"/><path d="M83.971 61.909c0 1.816-3.86 3.294-8.619 3.294-4.77 0-8.626-1.478-8.626-3.294 0-1.82 3.856-3.29 8.626-3.29 4.759 0 8.62 1.47 8.62 3.29z" fill="#B8D1E6"/><path d="M75.353 64.856c-4.953 0-8.28-1.524-8.28-2.948 0-1.422 3.327-2.943 8.28-2.943 4.949 0 8.273 1.52 8.273 2.943 0 1.396-3.398 2.948-8.273 2.948z" fill="#F2F9FF"/><path d="M74.903 63.743c-1.438-.043-2.512-.26-3.253-.553l.923-.485c.513.22 1.325.42 2.33.48V62.15c-1.438-.136-2.946-.334-2.946-1.026 0-.544 1.143-.975 2.945-1.034v-.49h1.114v.496c1.132.047 2.082.219 2.807.484l-.92.463c-.531-.201-1.2-.323-1.887-.378v.922c1.453.144 3.031.352 3.031 1.066 0 .544-.937 1.021-3.03 1.09v.48h-1.115v-.479zm0-2.268v-.837c-.782.036-1.27.203-1.27.438 0 .208.53.313 1.27.399zm1.114.789v.926c.966-.054 1.355-.272 1.355-.48 0-.24-.584-.356-1.355-.446z" fill="#B8D1E6"/><path d="M67.257 62.488v2.175c.163.171.365.334.597.49v-2.037a2.335 2.335 0 01-.597-.628zm15.431.724v2.04c.228-.14.431-.287.601-.441v-2.123a3.088 3.088 0 01-.6.524zm-14.367.216v2.005c.186.1.385.195.602.286v-1.983a7.037 7.037 0 01-.602-.308zm1.068.5v1.975c.192.07.391.138.599.2v-1.967a10.232 10.232 0 01-.599-.207z" fill="#F2F9FF"/><path d="M82.052 59.493c-1.58-.743-3.995-1.218-6.699-1.218-2.712 0-5.126.475-6.706 1.218h-1.92v2.07c0 1.817 3.855 3.293 8.625 3.293 4.758 0 8.62-1.476 8.62-3.293v-2.07h-1.92z" fill="#5D6D7E"/><path d="M66.726 59.493v1.618c0 1.818 3.856 3.294 8.626 3.294 4.758 0 8.62-1.476 8.62-3.294v-1.618H66.725z" fill="#B8D1E6"/><path d="M66.726 59.493v1.618c0 1.818 3.856 3.294 8.626 3.294 4.758 0 8.62-1.476 8.62-3.294v-1.618H66.725z" fill="#B8D1E6"/><path d="M83.971 59.493c0 1.818-3.86 3.294-8.619 3.294-4.77 0-8.626-1.476-8.626-3.294 0-1.819 3.856-3.289 8.626-3.289 4.759 0 8.62 1.47 8.62 3.29z" fill="#B8D1E6"/><path d="M75.353 62.442c-4.953 0-8.28-1.525-8.28-2.949 0-1.42 3.327-2.943 8.28-2.943 4.949 0 8.273 1.523 8.273 2.943 0 1.395-3.398 2.949-8.273 2.949z" fill="#F2F9FF"/><path d="M74.903 61.328c-1.438-.041-2.512-.261-3.253-.553l.923-.484c.513.219 1.325.42 2.33.478v-1.034c-1.438-.137-2.946-.335-2.946-1.026 0-.543 1.143-.975 2.945-1.034v-.49h1.114v.496c1.132.048 2.082.218 2.807.486l-.92.462c-.531-.2-1.2-.326-1.887-.378v.922c1.453.142 3.031.351 3.031 1.064 0 .543-.937 1.023-3.03 1.09v.481h-1.115v-.48zm0-2.268v-.837c-.782.038-1.27.204-1.27.436 0 .211.53.316 1.27.401zm1.114.788v.926c.966-.053 1.355-.271 1.355-.478 0-.24-.584-.357-1.355-.448z" fill="#B8D1E6"/><path d="M67.257 60.074v2.172c.163.171.365.335.597.492v-2.04c-.266-.201-.469-.41-.597-.624zm15.431.724v2.04c.228-.141.431-.289.601-.442v-2.122a3.064 3.064 0 01-.6.524zm-14.367.215v2.005c.186.1.385.197.602.287V61.32a6.48 6.48 0 01-.602-.307zm1.068.501v1.975c.192.071.391.137.599.2v-1.967a11.846 11.846 0 01-.599-.208z" fill="#F2F9FF"/><path d="M82.052 57.078c-1.58-.744-3.995-1.218-6.699-1.218-2.712 0-5.126.475-6.706 1.218h-1.92v2.071c0 1.816 3.855 3.293 8.625 3.293 4.758 0 8.62-1.477 8.62-3.293v-2.07h-1.92z" fill="#5D6D7E"/><path d="M66.726 57.079v1.618c0 1.816 3.856 3.294 8.626 3.294 4.758 0 8.62-1.478 8.62-3.294v-1.618H66.725z" fill="#B8D1E6"/><path d="M66.726 57.079v1.618c0 1.816 3.856 3.294 8.626 3.294 4.758 0 8.62-1.478 8.62-3.294v-1.618H66.725z" fill="#B8D1E6"/><path d="M83.971 57.079c0 1.817-3.86 3.295-8.619 3.295-4.77 0-8.626-1.478-8.626-3.295s3.856-3.288 8.626-3.288c4.759 0 8.62 1.47 8.62 3.288z" fill="#B8D1E6"/><path d="M75.353 60.028c-4.953 0-8.28-1.524-8.28-2.95 0-1.42 3.327-2.944 8.28-2.944 4.949 0 8.273 1.523 8.273 2.944 0 1.396-3.398 2.95-8.273 2.95z" fill="#F2F9FF"/><path d="M74.903 58.914c-1.438-.043-2.512-.261-3.253-.554l.923-.484c.513.218 1.325.42 2.33.479v-1.034c-1.438-.137-2.946-.335-2.946-1.027 0-.544 1.143-.975 2.945-1.033v-.49h1.114v.495c1.132.049 2.082.22 2.807.484l-.92.463c-.531-.201-1.2-.324-1.887-.377v.922c1.453.144 3.031.351 3.031 1.064 0 .544-.937 1.023-3.03 1.092v.48h-1.115v-.48zm0-2.269v-.838c-.782.04-1.27.204-1.27.438 0 .209.53.315 1.27.4zm1.114.789v.926c.966-.054 1.355-.272 1.355-.478 0-.24-.584-.358-1.355-.448z" fill="#5D6D7E"/><path d="M67.257 57.658v2.175c.163.171.365.335.597.49v-2.037c-.266-.203-.469-.413-.597-.628zm15.431.723v2.042c.228-.14.431-.29.601-.441V57.86a3.042 3.042 0 01-.6.521zm-14.367.219v2.003c.186.102.385.197.602.29v-1.988c-.219-.098-.42-.2-.602-.305zm1.068.5v1.976c.192.069.391.135.599.199v-1.97a9.554 9.554 0 01-.599-.205z" fill="#F2F9FF"/><path d="M62.712 78.81c-1.579-.744-3.993-1.22-6.698-1.22-2.712 0-5.125.476-6.706 1.22h-1.92v2.069c0 1.816 3.857 3.295 8.626 3.295 4.759 0 8.618-1.48 8.618-3.296V78.81h-1.92z" fill="#5D6D7E"/><path d="M47.39 78.81v1.617c0 1.816 3.855 3.294 8.624 3.294 4.76 0 8.619-1.478 8.619-3.294V78.81H47.389z" fill="#B8D1E6"/><path d="M47.39 78.81v1.617c0 1.816 3.855 3.294 8.624 3.294 4.76 0 8.619-1.478 8.619-3.294V78.81H47.389z" fill="#B8D1E6"/><path d="M64.632 78.81c0 1.816-3.86 3.293-8.618 3.293-4.769 0-8.625-1.477-8.625-3.294 0-1.819 3.856-3.289 8.625-3.289 4.759 0 8.618 1.47 8.618 3.29z" fill="#B8D1E6"/><path d="M56.014 81.76c-4.953 0-8.28-1.525-8.28-2.95 0-1.42 3.327-2.945 8.28-2.945 4.95 0 8.272 1.525 8.272 2.944 0 1.396-3.396 2.95-8.272 2.95z" fill="#F2F9FF"/><path d="M55.565 80.646c-1.439-.043-2.514-.262-3.253-.555l.922-.483c.515.218 1.325.419 2.331.478v-1.033c-1.439-.139-2.946-.337-2.946-1.03 0-.54 1.144-.972 2.946-1.032v-.49h1.114v.494c1.132.05 2.08.22 2.807.487l-.92.462c-.532-.202-1.202-.325-1.887-.38v.924c1.452.143 3.03.35 3.03 1.064 0 .544-.935 1.022-3.03 1.092v.479h-1.114v-.477zm0-2.271v-.836c-.782.038-1.271.203-1.271.438 0 .207.531.313 1.271.398zm1.114.79v.925c.965-.055 1.355-.271 1.355-.479 0-.24-.585-.356-1.355-.447z" fill="#B8D1E6"/><path d="M47.917 79.389v2.176c.164.17.367.334.6.49v-2.04a2.383 2.383 0 01-.6-.626zm15.433.723v2.041c.228-.14.43-.287.6-.44V79.59a3.15 3.15 0 01-.6.522zm-14.366.218v2.002c.186.102.386.199.6.29v-1.986a6.889 6.889 0 01-.6-.306zm1.068.502v1.974c.192.069.392.136.6.199v-1.968a9.836 9.836 0 01-.6-.205z" fill="#F2F9FF"/><path d="M62.712 76.396c-1.579-.743-3.993-1.22-6.698-1.22-2.712 0-5.125.477-6.706 1.22h-1.92v2.068c0 1.817 3.857 3.294 8.626 3.294 4.759 0 8.618-1.477 8.618-3.294v-2.068h-1.92z" fill="#5D6D7E"/><path d="M47.39 76.396v1.616c0 1.816 3.855 3.293 8.624 3.293 4.76 0 8.619-1.477 8.619-3.293v-1.616H47.389z" fill="#B8D1E6"/><path d="M47.39 76.396v1.616c0 1.816 3.855 3.293 8.624 3.293 4.76 0 8.619-1.477 8.619-3.293v-1.616H47.389z" fill="#B8D1E6"/><path d="M64.632 76.396c0 1.817-3.86 3.294-8.618 3.294-4.769 0-8.625-1.477-8.625-3.294 0-1.82 3.856-3.29 8.625-3.29 4.759 0 8.618 1.47 8.618 3.29z" fill="#B8D1E6"/><path d="M56.014 79.345c-4.953 0-8.28-1.526-8.28-2.948 0-1.424 3.327-2.945 8.28-2.945 4.95 0 8.272 1.522 8.272 2.945 0 1.394-3.396 2.948-8.272 2.948z" fill="#F2F9FF"/><path d="M55.565 78.23c-1.439-.043-2.514-.261-3.253-.553l.922-.485c.515.22 1.325.42 2.331.48v-1.035c-1.439-.137-2.946-.336-2.946-1.028 0-.542 1.144-.976 2.946-1.033v-.491h1.114v.496c1.132.048 2.08.218 2.807.486l-.92.462c-.532-.201-1.202-.325-1.887-.378v.921c1.452.145 3.03.352 3.03 1.065 0 .544-.935 1.023-3.03 1.092v.479h-1.114v-.478zm0-2.268v-.836c-.782.037-1.271.202-1.271.438 0 .207.531.313 1.271.398zm1.114.79v.925c.965-.056 1.355-.272 1.355-.48 0-.238-.585-.356-1.355-.446z" fill="#B8D1E6"/><path d="M47.917 76.975v2.174c.164.172.367.333.6.49v-2.037a2.414 2.414 0 01-.6-.627zm15.433.722v2.042c.228-.14.43-.288.6-.442v-2.122a3.014 3.014 0 01-.6.522zm-14.366.217v2.005c.186.1.386.197.6.288v-1.985a6.67 6.67 0 01-.6-.308zm1.068.502v1.974c.192.07.392.138.6.2v-1.967a10.955 10.955 0 01-.6-.207z" fill="#F2F9FF"/><path d="M62.712 73.98c-1.579-.744-3.993-1.218-6.698-1.218-2.712 0-5.125.474-6.706 1.219h-1.92v2.07c0 1.816 3.857 3.293 8.626 3.293 4.759 0 8.618-1.477 8.618-3.294v-2.07h-1.92z" fill="#5D6D7E"/><path d="M47.39 73.98v1.617c0 1.817 3.855 3.294 8.624 3.294 4.76 0 8.619-1.477 8.619-3.294V73.98H47.389z" fill="#B8D1E6"/><path d="M47.39 73.98v1.617c0 1.817 3.855 3.294 8.624 3.294 4.76 0 8.619-1.477 8.619-3.294V73.98H47.389z" fill="#B8D1E6"/><path d="M64.632 73.98c0 1.818-3.86 3.295-8.618 3.295-4.769 0-8.625-1.477-8.625-3.295 0-1.82 3.856-3.289 8.625-3.289 4.759 0 8.618 1.469 8.618 3.29z" fill="#B8D1E6"/><path d="M56.014 76.93c-4.953 0-8.28-1.525-8.28-2.95 0-1.42 3.327-2.943 8.28-2.943 4.95 0 8.272 1.523 8.272 2.944 0 1.395-3.396 2.95-8.272 2.95z" fill="#F2F9FF"/><path d="M55.565 75.816c-1.439-.043-2.514-.26-3.253-.554l.922-.484c.515.218 1.325.42 2.331.478v-1.034c-1.439-.136-2.946-.335-2.946-1.026 0-.543 1.144-.975 2.946-1.036v-.488h1.114v.497c1.132.047 2.08.218 2.807.485l-.92.462c-.532-.203-1.202-.326-1.887-.378v.922c1.452.142 3.03.35 3.03 1.063 0 .544-.935 1.025-3.03 1.093v.48h-1.114v-.48zm0-2.268v-.84c-.782.04-1.271.205-1.271.439 0 .209.531.315 1.271.4zm1.114.788v.926c.965-.054 1.355-.272 1.355-.48 0-.239-.585-.357-1.355-.446z" fill="#B8D1E6"/><path d="M47.917 74.562v2.173c.164.17.367.335.6.491V75.19a2.484 2.484 0 01-.6-.627zm15.433.722v2.042c.228-.141.43-.29.6-.442v-2.122a3.065 3.065 0 01-.6.522zm-14.366.216v2.005c.186.1.386.195.6.287v-1.986a6.446 6.446 0 01-.6-.306zm1.068.501v1.975c.192.07.392.136.6.2v-1.968a9.551 9.551 0 01-.6-.207z" fill="#F2F9FF"/><path d="M62.712 71.566c-1.579-.743-3.993-1.218-6.698-1.218-2.712 0-5.125.475-6.706 1.218h-1.92v2.07c0 1.817 3.857 3.295 8.626 3.295 4.759 0 8.618-1.478 8.618-3.294v-2.071h-1.92z" fill="#5D6D7E"/><path d="M47.39 71.566v1.618c0 1.816 3.855 3.294 8.624 3.294 4.76 0 8.619-1.478 8.619-3.294v-1.618H47.389z" fill="#B8D1E6"/><path d="M47.39 71.566v1.618c0 1.816 3.855 3.294 8.624 3.294 4.76 0 8.619-1.478 8.619-3.294v-1.618H47.389z" fill="#B8D1E6"/><path d="M64.632 71.566c0 1.817-3.86 3.295-8.618 3.295-4.769 0-8.625-1.478-8.625-3.295 0-1.82 3.856-3.287 8.625-3.287 4.759 0 8.618 1.468 8.618 3.287z" fill="#B8D1E6"/><path d="M56.014 74.515c-4.953 0-8.28-1.524-8.28-2.95 0-1.419 3.327-2.943 8.28-2.943 4.95 0 8.272 1.524 8.272 2.943 0 1.396-3.396 2.95-8.272 2.95z" fill="#F2F9FF"/><path d="M55.565 73.401c-1.439-.042-2.514-.26-3.253-.554l.922-.484c.515.219 1.325.42 2.331.48v-1.035c-1.439-.138-2.946-.336-2.946-1.027 0-.543 1.144-.974 2.946-1.035v-.488h1.114v.494c1.132.048 2.08.22 2.807.486l-.92.463c-.532-.203-1.202-.325-1.887-.38v.922c1.452.144 3.03.352 3.03 1.066 0 .544-.935 1.021-3.03 1.092v.478h-1.114v-.478zm0-2.269v-.837c-.782.038-1.271.203-1.271.438 0 .208.531.314 1.271.4zm1.114.789v.926c.965-.054 1.355-.272 1.355-.478 0-.24-.585-.358-1.355-.448z" fill="#B8D1E6"/><path d="M47.917 72.145v2.176c.164.17.367.335.6.49v-2.038a2.382 2.382 0 01-.6-.628zm15.433.724v2.04c.228-.14.43-.287.6-.439v-2.122a3.19 3.19 0 01-.6.521zm-14.366.218v2.004c.186.1.386.196.6.287v-1.985a7.03 7.03 0 01-.6-.306zm1.068.5v1.976c.192.068.392.135.6.198v-1.968a8.9 8.9 0 01-.6-.206z" fill="#F2F9FF"/><path d="M62.712 69.152c-1.579-.744-3.993-1.22-6.698-1.22-2.712 0-5.125.477-6.706 1.22h-1.92v2.068c0 1.818 3.857 3.294 8.626 3.294 4.759 0 8.618-1.476 8.618-3.294v-2.068h-1.92z" fill="#5D6D7E"/><path d="M47.39 69.152v1.616c0 1.818 3.855 3.294 8.624 3.294 4.76 0 8.619-1.476 8.619-3.294v-1.616H47.389z" fill="#B8D1E6"/><path d="M47.39 69.152v1.616c0 1.818 3.855 3.294 8.624 3.294 4.76 0 8.619-1.476 8.619-3.294v-1.616H47.389z" fill="#B8D1E6"/><path d="M64.632 69.152c0 1.816-3.86 3.294-8.618 3.294-4.769 0-8.625-1.478-8.625-3.294 0-1.819 3.856-3.29 8.625-3.29 4.759 0 8.618 1.471 8.618 3.29z" fill="#B8D1E6"/><path d="M56.014 72.1c-4.953 0-8.28-1.525-8.28-2.948 0-1.422 3.327-2.944 8.28-2.944 4.95 0 8.272 1.522 8.272 2.944 0 1.396-3.396 2.949-8.272 2.949z" fill="#F2F9FF"/><path d="M55.565 70.987c-1.439-.043-2.514-.261-3.253-.553l.922-.486c.515.22 1.325.422 2.331.48v-1.034c-1.439-.137-2.946-.335-2.946-1.028 0-.543 1.144-.974 2.946-1.033v-.49h1.114v.495c1.132.047 2.08.218 2.807.485l-.92.463c-.532-.201-1.202-.324-1.887-.379v.922c1.452.144 3.03.352 3.03 1.066 0 .542-.935 1.022-3.03 1.09v.48h-1.114v-.478zm0-2.27v-.835c-.782.036-1.271.203-1.271.438 0 .207.531.313 1.271.398zm1.114.79v.926c.965-.055 1.355-.271 1.355-.48 0-.239-.585-.355-1.355-.446z" fill="#B8D1E6"/><path d="M47.917 69.732v2.174c.164.172.367.334.6.49v-2.037a2.426 2.426 0 01-.6-.627zm15.433.723v2.04c.228-.14.43-.286.6-.442v-2.121a3.109 3.109 0 01-.6.523zm-14.366.216v2.004c.186.1.386.197.6.287V70.98a6.885 6.885 0 01-.6-.308zm1.068.502v1.974c.192.07.392.138.6.2v-1.968a12.074 12.074 0 01-.6-.206z" fill="#F2F9FF"/><path d="M62.712 66.737c-1.579-.745-3.993-1.218-6.698-1.218-2.712 0-5.125.473-6.706 1.218h-1.92v2.07c0 1.817 3.857 3.293 8.626 3.293 4.759 0 8.618-1.476 8.618-3.293v-2.07h-1.92z" fill="#5D6D7E"/><path d="M47.39 66.737v1.618c0 1.816 3.855 3.292 8.624 3.292 4.76 0 8.619-1.476 8.619-3.292v-1.618H47.389z" fill="#B8D1E6"/><path d="M47.39 66.737v1.618c0 1.816 3.855 3.292 8.624 3.292 4.76 0 8.619-1.476 8.619-3.292v-1.618H47.389z" fill="#B8D1E6"/><path d="M64.632 66.737c0 1.817-3.86 3.294-8.618 3.294-4.769 0-8.625-1.477-8.625-3.294 0-1.818 3.856-3.29 8.625-3.29 4.759 0 8.618 1.473 8.618 3.29z" fill="#B8D1E6"/><path d="M56.014 69.687c-4.953 0-8.28-1.526-8.28-2.95 0-1.421 3.327-2.944 8.28-2.944 4.95 0 8.272 1.523 8.272 2.944 0 1.395-3.396 2.95-8.272 2.95z" fill="#F2F9FF"/><path d="M55.565 68.571c-1.439-.041-2.514-.26-3.253-.552l.922-.484c.515.218 1.325.42 2.331.478v-1.034c-1.439-.137-2.946-.336-2.946-1.027 0-.542 1.144-.975 2.946-1.032v-.492h1.114v.497c1.132.047 2.08.218 2.807.485l-.92.462c-.532-.2-1.202-.325-1.887-.378v.922c1.452.143 3.03.352 3.03 1.063 0 .544-.935 1.024-3.03 1.092v.48h-1.114v-.48zm0-2.267v-.837c-.782.038-1.271.204-1.271.436 0 .21.531.315 1.271.401zm1.114.788v.927c.965-.055 1.355-.272 1.355-.48 0-.24-.585-.356-1.355-.447z" fill="#5D6D7E"/><path d="M47.917 67.318v2.172c.164.171.367.335.6.492v-2.039a2.436 2.436 0 01-.6-.625zm15.433.722v2.042c.228-.142.43-.29.6-.442v-2.122a3.014 3.014 0 01-.6.522zm-14.366.217v2.005c.186.1.386.195.6.288v-1.987a6.647 6.647 0 01-.6-.306zm1.068.5v1.976c.192.07.392.137.6.2v-1.968a10.845 10.845 0 01-.6-.208z" fill="#F2F9FF"/><path d="M43.375 78.81c-1.581-.744-3.993-1.22-6.698-1.22-2.71 0-5.127.476-6.706 1.22H28.05v2.069c0 1.816 3.856 3.295 8.626 3.295 4.758 0 8.619-1.48 8.619-3.296V78.81h-1.92z" fill="#5D6D7E"/><path d="M28.05 78.81v1.617c0 1.816 3.856 3.294 8.626 3.294 4.758 0 8.619-1.478 8.619-3.294V78.81H28.05z" fill="#B8D1E6"/><path d="M28.05 78.81v1.617c0 1.816 3.856 3.294 8.626 3.294 4.758 0 8.619-1.478 8.619-3.294V78.81H28.05z" fill="#B8D1E6"/><path d="M45.295 78.81c0 1.816-3.86 3.293-8.619 3.293-4.77 0-8.626-1.477-8.626-3.294 0-1.819 3.856-3.289 8.626-3.289 4.758 0 8.619 1.47 8.619 3.29z" fill="#B8D1E6"/><path d="M36.677 81.76c-4.953 0-8.281-1.525-8.281-2.95 0-1.42 3.328-2.945 8.28-2.945 4.95 0 8.274 1.525 8.274 2.944 0 1.396-3.399 2.95-8.273 2.95z" fill="#F2F9FF"/><path d="M36.226 80.646c-1.437-.043-2.511-.262-3.253-.555l.922-.483c.515.218 1.327.419 2.331.478v-1.033c-1.437-.139-2.945-.337-2.945-1.03 0-.54 1.144-.972 2.945-1.032v-.49h1.116v.494c1.13.05 2.08.22 2.807.487l-.922.462c-.531-.202-1.2-.325-1.885-.38v.924c1.452.143 3.03.35 3.03 1.064 0 .544-.936 1.022-3.03 1.092v.479h-1.116v-.477zm0-2.271v-.836c-.782.038-1.27.203-1.27.438 0 .207.532.313 1.27.398zm1.116.79v.925c.965-.055 1.354-.271 1.354-.479 0-.24-.585-.356-1.354-.447z" fill="#B8D1E6"/><path d="M28.58 79.389v2.176c.164.17.366.334.598.49v-2.04a2.337 2.337 0 01-.598-.626zm15.433.723v2.041c.228-.14.43-.287.6-.44V79.59a3.153 3.153 0 01-.6.522zm-14.367.218v2.002c.186.102.386.199.6.29v-1.986a6.89 6.89 0 01-.6-.306zm1.067.502v1.974c.192.069.392.136.6.199v-1.968c-.21-.064-.41-.135-.6-.205z" fill="#F2F9FF"/><path d="M43.375 76.396c-1.581-.743-3.993-1.22-6.698-1.22-2.71 0-5.127.477-6.706 1.22H28.05v2.068c0 1.817 3.856 3.294 8.626 3.294 4.758 0 8.619-1.477 8.619-3.294v-2.068h-1.92z" fill="#5D6D7E"/><path d="M28.05 76.396v1.616c0 1.816 3.856 3.293 8.626 3.293 4.758 0 8.619-1.477 8.619-3.293v-1.616H28.05z" fill="#B8D1E6"/><path d="M28.05 76.396v1.616c0 1.816 3.856 3.293 8.626 3.293 4.758 0 8.619-1.477 8.619-3.293v-1.616H28.05z" fill="#B8D1E6"/><path d="M45.295 76.396c0 1.817-3.86 3.294-8.619 3.294-4.77 0-8.626-1.477-8.626-3.294 0-1.82 3.856-3.29 8.626-3.29 4.758 0 8.619 1.47 8.619 3.29z" fill="#B8D1E6"/><path d="M36.677 79.345c-4.953 0-8.281-1.526-8.281-2.948 0-1.424 3.328-2.945 8.28-2.945 4.95 0 8.274 1.522 8.274 2.945 0 1.394-3.399 2.948-8.273 2.948z" fill="#F2F9FF"/><path d="M36.226 78.23c-1.437-.043-2.511-.261-3.253-.553l.922-.485c.515.22 1.327.42 2.331.48v-1.035c-1.437-.137-2.945-.336-2.945-1.028 0-.542 1.144-.976 2.945-1.033v-.491h1.116v.496c1.13.048 2.08.218 2.807.486l-.922.462c-.531-.201-1.2-.325-1.885-.378v.921c1.452.145 3.03.352 3.03 1.065 0 .544-.936 1.023-3.03 1.092v.479h-1.116v-.478zm0-2.268v-.836c-.782.037-1.27.202-1.27.438 0 .207.532.313 1.27.398zm1.116.79v.925c.965-.056 1.354-.272 1.354-.48 0-.238-.585-.356-1.354-.446z" fill="#5D6D7E"/><path d="M28.58 76.975v2.174c.164.172.366.333.598.49v-2.037c-.265-.203-.468-.413-.598-.627zm15.433.722v2.042c.228-.14.43-.288.6-.442v-2.122a3.02 3.02 0 01-.6.522zm-14.367.217v2.005c.186.1.386.197.6.288v-1.985a6.67 6.67 0 01-.6-.308zm1.067.502v1.974c.192.07.392.138.6.2v-1.967c-.21-.067-.41-.135-.6-.207zm-.607-12.384a2.11 2.11 0 01-.397-4.179c6.302-1.22 12.674-3.398 18.938-6.472 13.42-6.584 24.031-16.254 28.385-25.867a2.113 2.113 0 012.793-1.05 2.113 2.113 0 011.05 2.792c-4.747 10.476-16.1 20.91-30.37 27.912-6.6 3.238-13.327 5.534-19.994 6.824a2 2 0 01-.405.04z" fill="#F2F9FF"/><path d="M81.888 44.192a2.11 2.11 0 01-2.043-1.597l-2.423-9.65-9.652 2.423a2.108 2.108 0 11-1.026-4.09l13.742-3.451 3.45 13.742a2.11 2.11 0 01-2.048 2.623z" fill="#F2F9FF"/></svg>